HIERARCHY
ROOT Hips
{
	OFFSET -0.001795 -0.223333 0.028219
	CHANNELS 6 Xposition Yposition Zposition Zrotation Yrotation Xrotation 
	JOINT LeftUpLeg
	{
		OFFSET 0.069520 -0.091406 -0.006815
		CHANNELS 3 Zrotation Yrotation Xrotation
		JOINT LeftLeg
		{
			OFFSET 0.034277 -0.375199 -0.004496
			CHANNELS 3 Zrotation Yrotation Xrotation
			JOINT LeftFoot
			{
				OFFSET -0.013596 -0.397961 -0.043693
				CHANNELS 3 Zrotation Yrotation Xrotation
				JOINT LeftToe
				{
					OFFSET 0.026358 -0.055791 0.119288
					CHANNELS 3 Zrotation Yrotation Xrotation
					End Site
					{
						OFFSET 0.000000 0.000000 0.000000
					}
				}
			}
		}
	}
	JOINT RightUpLeg
	{
		OFFSET -0.067670 -0.090522 -0.004320
		CHANNELS 3 Zrotation Yrotation Xrotation
		JOINT RightLeg
		{
			OFFSET -0.038290 -0.382569 -0.008850
			CHANNELS 3 Zrotation Yrotation Xrotation
			JOINT RightFoot
			{
				OFFSET 0.015774 -0.398415 -0.042312
				CHANNELS 3 Zrotation Yrotation Xrotation
				JOINT RightToe
				{
					OFFSET -0.025372 -0.048144 0.123348
					CHANNELS 3 Zrotation Yrotation Xrotation
					End Site
					{
						OFFSET 0.000000 0.000000 0.000000
					}
				}
			}
		}
	}
	JOINT Spine
	{
		OFFSET -0.002533 0.108963 -0.026696
		CHANNELS 3 Zrotation Yrotation Xrotation
		JOINT Spine1
		{
			OFFSET 0.005487 0.135180 0.001092
			CHANNELS 3 Zrotation Yrotation Xrotation
			JOINT Spine2
			{
				OFFSET 0.001457 0.052922 0.025425
				CHANNELS 3 Zrotation Yrotation Xrotation
				JOINT Neck
				{
					OFFSET -0.002778 0.213870 -0.042857
					CHANNELS 3 Zrotation Yrotation Xrotation
					JOINT Head
					{
						OFFSET 0.005152 0.064970 0.051349
						CHANNELS 3 Zrotation Yrotation Xrotation
						End Site
						{
							OFFSET 0.000000 0.000000 0.000000
						}
					}
				}
				JOINT LeftShoulder
				{
					OFFSET 0.078845 0.121749 -0.034090
					CHANNELS 3 Zrotation Yrotation Xrotation
					JOINT LeftArm
					{
						OFFSET 0.090977 0.030469 -0.008868
						CHANNELS 3 Zrotation Yrotation Xrotation
						JOINT LeftForeArm
						{
							OFFSET 0.259612 -0.012772 -0.027456
							CHANNELS 3 Zrotation Yrotation Xrotation
							JOINT LeftHand
							{
								OFFSET 0.249234 0.008986 -0.001171
								CHANNELS 3 Zrotation Yrotation Xrotation
								End Site
								{
									OFFSET 0.000000 0.000000 0.000000
								}
							}
						}
					}
				}
				JOINT RightShoulder
				{
					OFFSET -0.081759 0.118833 -0.038615
					CHANNELS 3 Zrotation Yrotation Xrotation
					JOINT RightArm
					{
						OFFSET -0.096012 0.032551 -0.009143
						CHANNELS 3 Zrotation Yrotation Xrotation
						JOINT RightForeArm
						{
							OFFSET -0.253742 -0.013329 -0.021401
							CHANNELS 3 Zrotation Yrotation Xrotation
							JOINT RightHand
							{
								OFFSET -0.255298 0.007772 -0.005559
								CHANNELS 3 Zrotation Yrotation Xrotation
								End Site
								{
									OFFSET 0.000000 0.000000 0.000000
								}
							}
						}
					}
				}
			}
		}
	}
}
MOTION
Frames: 7
Frame Time: 0.050000
0.007942 0.937650 -0.074021 -2.174013 -4.749990 -2.162645 0.362556 0.491462 5.210459 2.457215 -0.272252 -0.338196 -2.363223 -4.525517 1.170173 0.000000 0.000000 0.000000 2.544883 -0.364436 2.594643 -4.490577 0.842257 4.678116 2.750410 4.930594 2.888954 0.000000 0.000000 0.000000 4.551127 -0.503002 6.474435 -0.975035 0.469189 -0.135835 -4.201060 7.353975 -1.296967 9.929796 -4.421051 -14.675574 0.000000 0.000000 0.000000 -17.254463 -2.459170 -1.982803 -49.663259 -7.984197 -1.870989 -17.118662 -25.900716 4.372942 0.000000 0.000000 0.000000 16.766818 -3.853556 -2.427345 55.813314 2.872818 -3.639151 13.647786 28.672753 4.605591 0.000000 0.000000 0.000000 
0.007642 0.937852 -0.073992 -2.204828 -4.609377 -1.805445 0.282705 0.481251 5.085280 2.718316 -0.271987 -0.846782 -2.448174 -4.603226 1.364434 0.000000 0.000000 0.000000 2.661840 -0.350132 2.403519 -4.572189 0.825038 4.345869 2.730617 4.797546 3.024017 0.000000 0.000000 0.000000 4.497238 -0.497989 6.356590 -0.918452 0.442362 -0.295795 -3.956551 7.191338 -1.161420 9.792798 -4.304717 -14.897067 0.000000 0.000000 0.000000 -17.114642 -2.291278 -1.998940 -49.480976 -7.741833 -1.981354 -17.004328 -26.068160 4.392498 0.000000 0.000000 0.000000 16.353207 -4.022853 -2.518745 55.812174 2.451817 -3.816131 14.076387 28.870828 4.741069 0.000000 0.000000 0.000000 
0.007188 0.937862 -0.073958 -2.221957 -4.586133 -1.442273 0.287917 0.463803 4.914555 2.793525 -0.256015 -1.253799 -2.477699 -4.602316 1.487158 0.000000 0.000000 0.000000 2.769903 -0.315057 2.041969 -4.663381 0.832563 4.292645 2.713995 4.749188 3.038394 0.000000 0.000000 0.000000 4.423824 -0.486607 6.172075 -0.792469 0.382453 -0.458073 -3.861228 7.045406 -0.963459 9.793262 -4.295112 -15.032687 0.000000 0.000000 0.000000 -17.154001 -2.141690 -2.033742 -49.292079 -7.881794 -1.934443 -16.674587 -25.582165 4.255305 0.000000 0.000000 0.000000 16.325867 -4.171719 -2.623892 55.530546 2.300399 -3.879848 14.313549 29.123259 4.840817 0.000000 0.000000 0.000000 
0.006458 0.937618 -0.073799 -2.229169 -4.522766 -1.033862 0.241690 0.430765 4.562187 2.974984 -0.264642 -1.414491 -2.473742 -4.606143 1.460047 0.000000 0.000000 0.000000 2.855066 -0.282467 1.711606 -4.697711 0.821811 4.122786 2.667387 4.685219 2.973384 0.000000 0.000000 0.000000 4.278111 -0.462969 5.863763 -0.693794 0.335878 -0.543323 -3.653798 6.810459 -0.668352 9.570175 -4.153855 -15.195794 0.000000 0.000000 0.000000 -17.113171 -1.893594 -2.078818 -49.500907 -8.024481 -1.926151 -16.267556 -25.215860 4.129681 0.000000 0.000000 0.000000 16.271926 -4.127501 -2.642280 55.520079 2.251683 -3.920302 14.411447 29.269883 4.879157 0.000000 0.000000 0.000000 
0.005401 0.937431 -0.073524 -2.280223 -4.541496 -0.805380 0.314202 0.408514 4.364477 3.058677 -0.270758 -1.452666 -2.438355 -4.562222 1.400243 0.000000 0.000000 0.000000 3.003975 -0.272954 1.566586 -4.744318 0.815371 3.981840 2.661090 4.701746 2.925871 0.000000 0.000000 0.000000 4.167119 -0.447762 5.686255 -0.625891 0.303323 -0.510079 -3.551320 6.723607 -0.628822 9.489589 -4.107837 -15.229607 0.000000 0.000000 0.000000 -17.132953 -1.809930 -2.094667 -49.663850 -7.904551 -1.989927 -16.024291 -24.610801 3.987350 0.000000 0.000000 0.000000 16.348091 -4.076232 -2.643990 55.704244 2.275485 -3.923136 14.063866 29.017336 4.734026 0.000000 0.000000 0.000000 
0.004122 0.937137 -0.073065 -2.353804 -4.520499 -0.485563 0.482154 0.371988 4.057061 3.046649 -0.268891 -1.453805 -2.409477 -4.554042 1.294804 0.000000 0.000000 0.000000 3.215088 -0.254313 1.324046 -4.821991 0.815716 3.871323 2.625556 4.675994 2.840561 0.000000 0.000000 0.000000 4.053983 -0.423043 5.356395 -0.569274 0.276225 -0.469325 -3.349971 6.571541 -0.566217 9.431666 -3.994004 -15.707008 0.000000 0.000000 0.000000 -17.184761 -1.415746 -2.251643 -49.841549 -7.795466 -2.057098 -16.081715 -24.107855 3.930406 0.000000 0.000000 0.000000 16.317570 -4.164623 -2.724078 55.925997 2.388102 -3.880734 13.731859 28.357966 4.514395 0.000000 0.000000 0.000000 
0.002727 0.937051 -0.072554 -2.473190 -4.539842 -0.212894 0.752091 0.319072 3.598616 2.944294 -0.281069 -1.067564 -2.348841 -4.501536 1.144678 0.000000 0.000000 0.000000 3.424226 -0.248426 1.191370 -4.806427 0.794136 3.658182 2.645616 4.706835 2.865348 0.000000 0.000000 0.000000 4.013578 -0.401890 5.037355 -0.583652 0.283372 -0.480302 -3.165209 6.566050 -0.510662 9.535194 -4.000114 -16.022662 0.000000 0.000000 0.000000 -17.376791 -1.123640 -2.409805 -49.975149 -7.476951 -2.197646 -16.110649 -23.496813 3.842684 0.000000 0.000000 0.000000 16.604682 -4.126996 -2.740151 56.179780 2.501812 -3.852453 13.152018 27.792526 4.266292 0.000000 0.000000 0.000000 
